<svg xmlns="http://www.w3.org/2000/svg" viewBox="0 0 600 600">
  <!-- White area = visible; black/transparent = hidden. Rough brush/paint stroke shape -->
  <defs>
    <filter id="rough" x="-20%" y="-20%" width="140%" height="140%">
      <feTurbulence type="fractalNoise" baseFrequency="0.9" numOctaves="2" result="noise"/>
      <feDisplacementMap in="SourceGraphic" in2="noise" scale="2" xChannelSelector="R" yChannelSelector="G"/>
    </filter>
  </defs>
  <g filter="url(#rough)">
    <path fill="#fff" d="M86 250 C110 200, 150 150, 210 140 C260 130, 310 150, 350 165 C390 180, 440 190, 500 180 C520 190, 545 210, 560 240 C565 265, 563 290, 550 315 C535 340, 510 360, 485 370 C440 390, 395 385, 350 390 C300 395, 245 415, 195 410 C155 405, 120 390, 100 365 C80 340, 72 320, 76 295 C80 275, 78 265, 86 250 Z"/>
  </g>
</svg>


