<?xml version="1.0" encoding="UTF-8"?>
<svg width="64px" height="64px" viewBox="0 0 64 64" version="1.1" xmlns="http://www.w3.org/2000/svg" xmlns:xlink="http://www.w3.org/1999/xlink">
    <title>shield</title>
    <g id="Page-1" stroke="none" stroke-width="1" fill="none" fill-rule="evenodd">
        <circle id="Oval" fill="#4C6EF5" cx="32" cy="32" r="29"></circle>
        <path d="M32,12 C37.4183,12 41.7886,15.5744 42.7835,20.4035 L50.0555,24.0359 C50.6741,24.3569 51,25.0066 51,25.7016 L51,35.2201 C51,40.0896 48.8938,44.7084 45.2455,47.7899 L32.7809,58.3879 C32.307,58.7945 31.6109,58.7945 31.137,58.3879 L18.7545,47.7899 C15.1062,44.7084 13,40.0896 13,35.2201 L13,25.7016 C13,25.0066 13.3259,24.3569 13.9445,24.0359 L21.2165,20.4035 C22.2114,15.5744 26.5817,12 32,12 Z" id="Combined-Shape" fill="#FFFFFF"></path>
        <path d="M32,19 C35.866,19 39,22.134 39,26 C39,29.866 35.866,33 32,33 C28.134,33 25,29.866 25,26 C25,22.134 28.134,19 32,19 Z M32,35 C37.523,35 42,39.477 42,45 C42,47.425 41.037,49.631 39.445,51.223 L32,57 L24.555,51.223 C22.963,49.631 22,47.425 22,45 C22,39.477 26.477,35 32,35 Z" id="Combined-Shape" fill="#4C6EF5"></path>
    </g>
</svg>
